<svg width="45" height="23" viewBox="0 0 45 23" fill="none" xmlns="http://www.w3.org/2000/svg">
<g clip-path="url(#clip0_387_610)">
<path fill-rule="evenodd" clip-rule="evenodd" d="M0.5 0.928711H11.4999V22.9287H0.5V0.928711Z" fill="#DA2724"/>
<path fill-rule="evenodd" clip-rule="evenodd" d="M11.5001 0.928711H33.4999V22.9287H11.5001V0.928711Z" fill="white"/>
<path fill-rule="evenodd" clip-rule="evenodd" d="M33.4999 0.928711H44.4998V22.9287H33.4999V0.928711Z" fill="#DA2724"/>
<path fill-rule="evenodd" clip-rule="evenodd" d="M22.4996 2.99219L21.0587 5.68734C20.8952 5.98035 20.6023 5.95309 20.3093 5.78955L19.2661 5.24783L20.0436 9.3876C20.2071 10.144 19.6826 10.144 19.4237 9.81691L17.603 7.77296L17.3074 8.81095C17.2734 8.94723 17.1235 9.09033 16.8987 9.05625L14.5966 8.57088L15.2012 10.7754C15.3307 11.2661 15.4316 11.4691 15.0705 11.5986L14.25 11.9853L18.2129 15.2135C18.3698 15.3356 18.4491 15.5552 18.3932 15.7541L18.0464 16.8956L21.9988 16.4392C22.12 16.4377 22.1994 16.505 22.1985 16.6451L21.955 20.8631L22.5 20.8664L22.4997 2.993L22.4996 2.99219ZM22.5003 2.99219L23.9412 5.68734C24.1047 5.98035 24.3977 5.95309 24.6906 5.78955L25.7338 5.24783L24.9563 9.3876C24.7928 10.144 25.3174 10.144 25.5763 9.81691L27.3969 7.77296L27.6925 8.81095C27.7266 8.94723 27.8765 9.09033 28.1013 9.05625L30.4034 8.57088L29.7987 10.7754C29.6693 11.2661 29.5683 11.4691 29.9294 11.5986L30.7499 11.9853L26.787 15.2135C26.6301 15.3356 26.5509 15.5552 26.6067 15.7541L26.9536 16.8956L23.0012 16.4392C22.8799 16.4377 22.8006 16.505 22.8014 16.6451L23.0449 20.8631L22.5 20.8664L22.5003 2.993L22.5003 2.99219Z" fill="#DA2724"/>
</g>
<defs>
<clipPath id="clip0_387_610">
<rect width="44" height="22" fill="white" transform="translate(0.5 0.928711)"/>
</clipPath>
</defs>
</svg>
