<svg width="46" height="49" viewBox="0 0 46 49" fill="none" xmlns="http://www.w3.org/2000/svg">
<path fill-rule="evenodd" clip-rule="evenodd" d="M6 4.00098C4.89543 4.00098 4 4.89641 4 6.00098V28.001C4 29.1055 3.10457 30.001 2 30.001C0.895431 30.001 2.98023e-08 29.1055 2.98023e-08 28.001V6.00098C2.98023e-08 2.68727 2.68629 0.000976562 6 0.000976562H40C43.3137 0.000976562 46 2.68727 46 6.00098V29.001C46 32.3147 43.3137 35.001 40 35.001H16.8284L3.41421 48.4152C2.63317 49.1962 1.36684 49.1962 0.585787 48.4152C-0.195262 47.6341 -0.195262 46.3678 0.585787 45.5868L14.5858 31.5868C14.9609 31.2117 15.4696 31.001 16 31.001H40C41.1046 31.001 42 30.1055 42 29.001V6.00098C42 4.89641 41.1046 4.00098 40 4.00098H6Z" fill="black"/>
<path fill-rule="evenodd" clip-rule="evenodd" d="M9 13.002C9 11.8974 9.89543 11.002 11 11.002H35C36.1046 11.002 37 11.8974 37 13.002C37 14.1065 36.1046 15.002 35 15.002H11C9.89543 15.002 9 14.1065 9 13.002Z" fill="black"/>
<line x1="11" y1="21.001" x2="35" y2="21.001" stroke="black" stroke-width="4" stroke-linecap="round"/>
</svg>
