<svg width="576" height="512" viewBox="0 0 576 512" fill="none" xmlns="http://www.w3.org/2000/svg">
<path d="M64 32C28.7 32 0 60.7 0 96V128H576V96C576 60.7 547.3 32 512 32H64ZM576 224H0V416C0 451.3 28.7 480 64 480H512C547.3 480 576 451.3 576 416V224ZM112 352H176C184.8 352 192 359.2 192 368C192 376.8 184.8 384 176 384H112C103.2 384 96 376.8 96 368C96 359.2 103.2 352 112 352ZM224 368C224 359.2 231.2 352 240 352H368C376.8 352 384 359.2 384 368C384 376.8 376.8 384 368 384H240C231.2 384 224 376.8 224 368Z" fill="#001996"/>
</svg>
