<svg width="44" height="50" viewBox="0 0 44 50" fill="none" xmlns="http://www.w3.org/2000/svg">
<path d="M34.375 12.5C34.375 19.4043 28.7793 25 21.875 25C14.9707 25 9.375 19.4043 9.375 12.5C9.375 5.59668 14.9707 0 21.875 0C28.7793 0 34.375 5.59668 34.375 12.5ZM20.4199 35.0781L17.1875 29.6875H26.5625L23.3301 35.0781L26.582 47.1777L30.4395 31.4355C37.9785 32.6074 43.75 39.1309 43.75 47.002C43.75 48.6523 42.4023 50 40.752 50H3C1.34277 50 0 48.6523 0 47.002C0 39.1309 5.77051 32.6074 13.3105 31.4355L17.168 47.1777L20.4199 35.0781Z" fill="#111"/>
</svg>
