<svg width="27" height="25" viewBox="0 0 27 25" fill="none" xmlns="http://www.w3.org/2000/svg">
<path d="M5.25 0C5.6625 0 6 0.349805 6 0.78125V3.125H15V0.78125C15 0.349805 15.3375 0 15.75 0C16.1625 0 16.5 0.349805 16.5 0.78125V3.125H18C19.6547 3.125 21 4.52393 21 6.25V9.40918C20.7516 9.38477 20.5031 9.375 20.25 9.375C19.9969 9.375 19.7484 9.38477 19.5 9.40918V9.375H1.5V21.875C1.5 22.7393 2.17172 23.4375 3 23.4375H13.8844C14.3578 24.0283 14.9016 24.5557 15.5062 25H3C1.34297 25 0 23.5986 0 21.875V6.25C0 4.52393 1.34297 3.125 3 3.125H4.5V0.78125C4.5 0.349805 4.8375 0 5.25 0ZM18 4.6875H3C2.17172 4.6875 1.5 5.38574 1.5 6.25V7.8125H19.5V6.25C19.5 5.38574 18.8297 4.6875 18 4.6875ZM20.2078 14.0625C20.6625 14.0625 20.9578 14.4141 20.9578 14.8438V17.1875H22.5C22.9125 17.1875 23.25 17.5391 23.25 17.9688C23.25 18.3984 22.9125 18.75 22.5 18.75H20.2078C19.8375 18.75 19.4578 18.3984 19.4578 17.9688V14.8438C19.4578 14.4141 19.8375 14.0625 20.2078 14.0625ZM13.5 17.9688C13.5 14.0869 16.5234 10.9375 20.25 10.9375C23.9766 10.9375 27 14.0869 27 17.9688C27 21.8506 23.9766 25 20.25 25C16.5234 25 13.5 21.8506 13.5 17.9688ZM20.25 23.4375C23.1516 23.4375 25.5 20.9912 25.5 17.9688C25.5 14.9463 23.1516 12.5 20.25 12.5C17.3484 12.5 15 14.9463 15 17.9688C15 20.9912 17.3484 23.4375 20.25 23.4375Z" fill="black"/>
</svg>
