<svg width="56" height="36" viewBox="0 0 56 36" fill="none" xmlns="http://www.w3.org/2000/svg">
<circle cx="18.9023" cy="18" r="18" fill="#001996"/>
<path fill-rule="evenodd" clip-rule="evenodd" d="M11.4023 27C11.4023 27 9.90234 27 9.90234 25.5C9.90234 24 11.4023 19.5 18.9023 19.5C26.4023 19.5 27.9023 24 27.9023 25.5C27.9023 27 26.4023 27 26.4023 27H11.4023ZM18.9023 18C20.0958 18 21.2404 17.5259 22.0843 16.682C22.9282 15.8381 23.4023 14.6935 23.4023 13.5C23.4023 12.3065 22.9282 11.1619 22.0843 10.318C21.2404 9.47411 20.0958 9 18.9023 9C17.7089 9 16.5643 9.47411 15.7204 10.318C14.8764 11.1619 14.4023 12.3065 14.4023 13.5C14.4023 14.6935 14.8764 15.8381 15.7204 16.682C16.5643 17.5259 17.7089 18 18.9023 18V18Z" fill="white"/>
<path d="M48.3405 20.7504L44.144 15.9537C43.6487 15.3893 44.0512 14.5029 44.8028 14.5029H53.1958C53.3641 14.5028 53.5287 14.5511 53.6702 14.6422C53.8116 14.7332 53.9238 14.8631 53.9934 15.0163C54.0629 15.1695 54.0868 15.3394 54.0622 15.5058C54.0376 15.6722 53.9656 15.828 53.8547 15.9546L49.6582 20.7496C49.5761 20.8435 49.4748 20.9189 49.3612 20.9705C49.2475 21.0221 49.1241 21.0488 48.9993 21.0488C48.8745 21.0488 48.7512 21.0221 48.6375 20.9705C48.5239 20.9189 48.4226 20.8435 48.3405 20.7496V20.7504Z" fill="#001996"/>
</svg>
