<svg width="37" height="36" viewBox="0 0 37 36" fill="none" xmlns="http://www.w3.org/2000/svg">
<circle cx="18.9028" cy="18" r="18" fill="#001996"/>
<path d="M19.0279 26.5726C19.6436 26.5726 20.234 26.328 20.6694 25.8926C21.1047 25.4573 21.3493 24.8668 21.3493 24.2511H16.7064C16.7064 24.8668 16.951 25.4573 17.3864 25.8926C17.8217 26.328 18.4122 26.5726 19.0279 26.5726ZM20.1828 9.27665C20.199 9.11525 20.1812 8.95226 20.1305 8.79817C20.0799 8.64408 19.9975 8.50232 19.8886 8.38203C19.7798 8.26174 19.647 8.1656 19.4987 8.0998C19.3505 8.034 19.1901 8 19.0279 8C18.8657 8 18.7053 8.034 18.557 8.0998C18.4088 8.1656 18.2759 8.26174 18.1671 8.38203C18.0583 8.50232 17.9759 8.64408 17.9252 8.79817C17.8746 8.95226 17.8568 9.11525 17.873 9.27665C16.561 9.5435 15.3816 10.2556 14.5345 11.2922C13.6873 12.3289 13.2244 13.6265 13.2243 14.9653C13.2243 16.2398 12.6439 21.9297 10.9028 23.0904H27.1529C25.4118 21.9297 24.8315 16.2398 24.8315 14.9653C24.8315 12.1564 22.835 9.81174 20.1828 9.27665Z" fill="white"/>
</svg>
