<svg width="57" height="50" viewBox="0 0 57 50" fill="none" xmlns="http://www.w3.org/2000/svg">
<g clip-path="url(#clip0_4_5603)">
<path d="M56.1523 32.2754C55.8518 31.4637 54.9561 31.0527 54.1455 31.3492L32.2803 39.4059C31.1523 36.4648 28.3301 34.375 25 34.375C24.51 34.375 24.0343 34.4328 23.5693 34.5192L13.8477 5.3418C12.7832 2.14648 9.80469 0 6.43359 0H1.47461C0.69873 0 0 0.698926 0 1.5625C0 2.42607 0.698828 3.125 1.5625 3.125H6.43359C8.4541 3.125 10.2402 4.41309 10.8818 6.33105L20.667 35.6865C18.5742 37.0898 17.1875 39.4727 17.1875 42.1875C17.1875 46.5039 20.6836 50 25 50C29.1904 50 32.582 46.6924 32.7764 42.5498L55.2275 34.2783C56.0352 33.8965 56.4551 33.0859 56.1523 32.2754ZM25 46.875C22.415 46.875 20.3125 44.7725 20.3125 42.1875C20.3125 39.6025 22.416 37.5879 25 37.5879C27.584 37.5879 29.6875 39.5996 29.6875 42.1875C29.6875 44.7754 27.5879 46.875 25 46.875ZM27.998 29.5605C28.6372 31.4785 30.4238 32.7666 32.4443 32.7666C32.9477 32.7666 33.4463 32.6854 33.9268 32.5253L46.749 28.2519C47.9365 27.8559 48.8994 27.0214 49.459 25.9013C50.0189 24.7812 50.1092 23.5106 49.7134 22.3231L45.4399 9.50088C44.8008 7.58291 43.0142 6.29482 40.9937 6.29482C40.4903 6.29482 39.9917 6.37607 39.5112 6.53613L26.6895 10.8105C25.502 11.2065 24.5391 12.041 23.9795 13.1611C23.418 14.2773 23.3301 15.5566 23.7207 16.7383L27.998 29.5605ZM26.7773 14.5605C26.9667 14.1817 27.2792 13.9107 27.6809 13.7769L40.5031 9.50342C40.6646 9.44963 40.8312 9.42235 40.998 9.42235C41.6714 9.42235 42.2666 9.85204 42.4805 10.4917L46.7539 23.314C46.8878 23.7158 46.8586 24.1284 46.6692 24.5073C46.4799 24.8861 46.1674 25.1571 45.7657 25.291L32.9434 29.5644C32.7817 29.6184 32.6152 29.6457 32.4483 29.6457C31.775 29.6457 31.1798 29.216 30.9659 28.5764L26.6895 15.752C26.5527 15.3516 26.582 14.8535 26.7773 14.5605Z" fill="black"/>
</g>
<defs>
<clipPath id="clip0_4_5603">
<rect width="56.25" height="50" fill="white"/>
</clipPath>
</defs>
</svg>
