<svg width="28" height="34" viewBox="0 0 28 34" fill="none" xmlns="http://www.w3.org/2000/svg">
<path d="M3.55546 0.000120575C1.59554 0.000120575 0.00012207 1.57696 0.00012207 3.5126V30.4874C0.00012207 32.423 1.59554 33.9999 3.55546 33.9999H24.4402C26.4002 33.9999 27.9956 32.4231 27.9956 30.4874V8.3066C27.9956 8.3066 28.0515 7.6571 27.766 7.02508C27.4984 6.43264 27.0623 6.0203 27.0623 6.0203C27.0612 6.01884 27.0601 6.01739 27.059 6.01594L21.8775 0.99628C21.8746 0.993417 21.8717 0.990581 21.8688 0.987777C21.8688 0.987777 21.4264 0.571729 20.7707 0.293796C19.9985 -0.0334564 19.2026 0.00108933 19.2026 0.00108933L19.2144 0L3.55546 0.000120575Z" fill="#FF2116"/>
<path d="M3.55545 1.1543H19.2145C19.2184 1.15434 19.2224 1.15434 19.2263 1.1543C19.2263 1.1543 19.8525 1.16029 20.3105 1.3544C20.7513 1.54123 21.0639 1.82403 21.066 1.82593C21.066 1.82594 21.0681 1.82811 21.0681 1.82811L26.2368 6.83605C26.2368 6.83605 26.5482 7.16076 26.6991 7.49492C26.8209 7.76463 26.8284 8.25808 26.8284 8.25808C26.8279 8.26623 26.8275 8.27438 26.8273 8.28255V30.4878C26.8273 31.8044 25.7733 32.8465 24.4402 32.8465H3.55545C2.22238 32.8465 1.16833 31.8045 1.16833 30.4878V3.51302C1.16833 2.19637 2.22238 1.15434 3.55545 1.15434V1.1543Z" fill="#F5F5F5"/>
<path d="M6.99038 20.2436C6.18661 19.4498 7.05623 18.3589 9.41629 17.2006L10.9013 16.4717L11.4798 15.2215C11.798 14.534 12.2729 13.4121 12.5351 12.7284L13.0119 11.4855L12.6833 10.5656C12.2793 9.43453 12.1353 7.73483 12.3916 7.12365C12.7388 6.2958 13.876 6.38074 14.3263 7.26815C14.6779 7.96122 14.642 9.21634 14.2251 10.7992L13.8834 12.0969L14.1844 12.6016C14.35 12.8792 14.8335 13.5382 15.259 14.0662L16.0587 15.0486L17.0538 14.9203C20.2149 14.5129 21.2977 15.2054 21.2977 16.1982C21.2977 17.4511 18.8155 17.5546 16.7311 16.1087C16.2621 15.7833 15.94 15.4601 15.94 15.4601C15.94 15.4601 14.6342 15.7227 13.9913 15.8938C13.3276 16.0705 12.9965 16.1811 12.0244 16.5052C12.0244 16.5052 11.6833 16.9944 11.4611 17.3501C10.6342 18.6732 9.6687 19.7697 8.97919 20.1688C8.20719 20.6156 7.39787 20.6461 6.99038 20.2436ZM8.25179 19.7986C8.7036 19.5228 9.61809 18.4545 10.2511 17.4631L10.5074 17.0617L9.34042 17.6412C7.53799 18.5362 6.71342 19.3798 7.14219 19.8901C7.38306 20.1767 7.67121 20.153 8.25179 19.7986ZM19.9596 16.5529C20.4015 16.2472 20.3373 15.6311 19.8377 15.3827C19.4489 15.1894 19.1355 15.1497 18.1255 15.1644C17.5048 15.2062 16.5067 15.3298 16.3375 15.3673C16.3375 15.3673 16.8858 15.7416 17.1293 15.8792C17.4533 16.062 18.2408 16.4013 18.8158 16.5751C19.3829 16.7466 19.711 16.7285 19.9596 16.5529V16.5529ZM15.252 14.6204C14.9846 14.3428 14.5298 13.7632 14.2414 13.3326C13.8643 12.8441 13.6751 12.4994 13.6751 12.4994C13.6751 12.4994 13.3995 13.3751 13.1733 13.9021L12.4677 15.6246L12.2631 16.0153C12.2631 16.0153 13.3507 15.6631 13.9041 15.5204C14.4902 15.3692 15.6796 15.1382 15.6796 15.1382L15.252 14.6204ZM13.735 8.61178C13.8032 8.04638 13.8321 7.48182 13.6482 7.19712C13.138 6.64628 12.5222 7.10564 12.6266 8.41521C12.6616 8.85577 12.7725 9.60888 12.9206 10.0731L13.19 10.917L13.3796 10.2814C13.4838 9.93177 13.6438 9.18045 13.735 8.61178Z" fill="#FF2116"/>
<path d="M8.3573 23.9199H9.66226C10.0792 23.9199 10.4177 23.9593 10.6777 24.0381C10.9376 24.1144 11.1564 24.286 11.334 24.5529C11.5116 24.8173 11.6004 25.1363 11.6004 25.51C11.6004 25.8532 11.5283 26.1481 11.3842 26.3946C11.2401 26.6412 11.0457 26.8192 10.8012 26.9285C10.5593 27.0378 10.186 27.0924 9.68157 27.0924H9.22985V29.1248H8.3573V23.9199ZM9.22985 24.5872V26.4023H9.66226C10.0483 26.4023 10.3147 26.3311 10.4615 26.1887C10.6107 26.0464 10.6854 25.815 10.6854 25.4947C10.6854 25.2558 10.6365 25.0626 10.5387 24.9151C10.4409 24.7652 10.3328 24.6737 10.2144 24.6406C10.0985 24.605 9.9145 24.5872 9.66226 24.5872L9.22985 24.5872ZM12.2683 23.9199H13.4536C14.0276 23.9199 14.4857 24.0203 14.8281 24.2212C15.173 24.422 15.4329 24.7207 15.6079 25.1172C15.7855 25.5138 15.8743 25.9536 15.8743 26.4366C15.8743 26.945 15.7945 27.3988 15.635 27.7979C15.478 28.1944 15.236 28.5147 14.9091 28.7588C14.5848 29.0028 14.1215 29.1248 13.5192 29.1248H12.2683V23.9199ZM13.1409 24.6101V28.4347H13.5038C14.0108 28.4347 14.3789 28.2618 14.608 27.9161C14.8371 27.5678 14.9516 27.1039 14.9516 26.5243C14.9516 25.2482 14.469 24.6101 13.5038 24.6101H13.1409ZM16.7121 23.9199H19.6386V24.6101H17.5847V26.1659H19.2294V26.856H17.5847V29.1248H16.7121V23.9199Z" fill="#2C2C2C"/>
</svg>
