<svg width="16" height="16" viewBox="0 0 16 16" fill="none" xmlns="http://www.w3.org/2000/svg">
<path fill-rule="evenodd" clip-rule="evenodd" d="M5.44402 1.991C4.5295 2.23685 3.62092 2.50426 2.71902 2.793C2.6374 2.81819 2.56455 2.8659 2.50883 2.93065C2.45311 2.99539 2.41678 3.07454 2.40402 3.159C1.87102 7.056 3.10102 9.9 4.56802 11.773C5.30402 12.713 6.10102 13.409 6.76502 13.866C7.09802 14.094 7.39102 14.26 7.62202 14.366C7.73802 14.419 7.83202 14.455 7.90402 14.476C7.93577 14.4862 7.96818 14.4942 8.00102 14.5C8.00802 14.499 8.03902 14.495 8.09802 14.477C8.17002 14.455 8.26402 14.419 8.38002 14.366C8.61002 14.26 8.90502 14.094 9.23702 13.866C10.0696 13.2818 10.8102 12.5763 11.434 11.773C12.901 9.9 14.131 7.056 13.598 3.159C13.5853 3.07454 13.5489 2.99539 13.4932 2.93065C13.4375 2.8659 13.3646 2.81819 13.283 2.793C12.657 2.593 11.601 2.267 10.558 1.991C9.49202 1.71 8.51102 1.5 8.00102 1.5C7.49102 1.5 6.51102 1.71 5.44402 1.991ZM5.18802 1.025C6.23102 0.749 7.33802 0.5 8.00102 0.5C8.66302 0.5 9.77102 0.749 10.814 1.025C11.7443 1.27477 12.6686 1.54652 13.586 1.84C14.114 2.008 14.512 2.463 14.589 3.024C15.162 7.221 13.833 10.331 12.222 12.389C11.5355 13.2722 10.7204 14.0475 9.80402 14.689C9.48537 14.9122 9.14852 15.1082 8.79702 15.275C8.52702 15.399 8.23902 15.5 8.00102 15.5C7.76302 15.5 7.47502 15.399 7.20502 15.275C6.85345 15.1084 6.51659 14.9123 6.19802 14.689C5.28196 14.0474 4.46725 13.2721 3.78102 12.389C2.16802 10.331 0.840023 7.221 1.41302 3.024C1.45133 2.75207 1.56587 2.49655 1.74337 2.28701C1.92088 2.07748 2.15409 1.92249 2.41602 1.84C3.33347 1.54652 4.25773 1.27478 5.18802 1.025Z" fill="#001996"/>
<path fill-rule="evenodd" clip-rule="evenodd" d="M10.8546 6.14592C10.9012 6.19236 10.9381 6.24754 10.9633 6.30828C10.9885 6.36903 11.0015 6.43415 11.0015 6.49992C11.0015 6.56568 10.9885 6.63081 10.9633 6.69155C10.9381 6.7523 10.9012 6.80747 10.8546 6.85392L7.85463 9.85392C7.80819 9.90048 7.75301 9.93742 7.69227 9.96263C7.63152 9.98784 7.5664 10.0008 7.50063 10.0008C7.43486 10.0008 7.36974 9.98784 7.309 9.96263C7.24825 9.93742 7.19308 9.90048 7.14663 9.85392L5.64663 8.35392C5.60014 8.30743 5.56327 8.25224 5.53811 8.1915C5.51295 8.13076 5.5 8.06566 5.5 7.99992C5.5 7.93417 5.51295 7.86907 5.53811 7.80833C5.56327 7.74759 5.60014 7.6924 5.64663 7.64592C5.69312 7.59943 5.74831 7.56255 5.80905 7.53739C5.86979 7.51223 5.93489 7.49929 6.00063 7.49929C6.06638 7.49929 6.13148 7.51223 6.19222 7.53739C6.25295 7.56255 6.30814 7.59943 6.35463 7.64592L7.50063 8.79292L10.1466 6.14592C10.1931 6.09935 10.2483 6.06241 10.309 6.0372C10.3697 6.012 10.4349 5.99902 10.5006 5.99902C10.5664 5.99902 10.6315 6.012 10.6923 6.0372C10.753 6.06241 10.8082 6.09935 10.8546 6.14592Z" fill="#001996"/>
</svg>
