<svg width="47" height="48" viewBox="0 0 47 48" fill="none" xmlns="http://www.w3.org/2000/svg">
<path d="M17.4726 22.2783H8.39258V27.9685H17.4726V22.2783Z" fill="#DCE3EB"/>
<path d="M25.6518 15.9219H17.4727V21.6109H25.6518V15.9219Z" fill="#DCE3EB"/>
<path d="M38.7625 36.876H11.3314C10.695 36.876 10.1784 36.3594 10.1784 35.7208V35.3523C10.1784 34.7159 10.695 34.1982 11.3314 34.1982H37.2388V9.78392H3.27769L10.3887 27.2613H33.8693C34.5452 27.2613 35.0923 27.8084 35.0923 28.4866V28.4888C35.0923 29.2891 34.4435 29.9391 33.6432 29.9391H9.56353C8.97462 29.9391 8.44223 29.5807 8.21955 29.0348L0.108211 9.10345C-0.279497 8.15057 0.422447 7.1084 1.45219 7.1084H38.836C39.4317 7.1084 39.9144 7.59331 39.9144 8.18674V35.7208C39.9144 36.3583 39.3989 36.876 38.7625 36.876Z" fill="black"/>
<path d="M17.6934 43.1064C17.7612 44.9986 16.2839 46.589 14.3951 46.6579C12.5017 46.7291 10.9125 45.2518 10.8401 43.3607C10.7723 41.4685 12.2485 39.8804 14.1396 39.8081C16.0341 39.738 17.6222 41.2153 17.6934 43.1064Z" fill="#DCE3EB"/>
<path d="M14.2691 41.1452H14.1911C13.6304 41.1655 13.1139 41.4029 12.7352 41.8121C12.3577 42.219 12.1587 42.7525 12.1791 43.3098C12.2017 43.8693 12.4356 44.3836 12.846 44.7623C13.254 45.1443 13.7853 45.3376 14.3437 45.3196C14.9032 45.3003 15.4186 45.0641 15.7984 44.6549C16.1771 44.2457 16.3749 43.7111 16.3545 43.1561C16.3116 42.0314 15.3836 41.1452 14.2691 41.1452ZM14.2634 47.9996C13.0551 47.9996 11.9112 47.5508 11.0216 46.7268C10.0868 45.8621 9.55102 44.682 9.50128 43.4115C9.45494 42.1376 9.9082 40.9236 10.7718 39.9922C11.6399 39.0597 12.8177 38.5171 14.0916 38.4697C16.7366 38.3792 18.9351 40.4319 19.0301 43.0589C19.0764 44.3305 18.6265 45.5456 17.7562 46.4782C16.8915 47.4096 15.7136 47.9487 14.442 47.9962C14.3832 47.9996 14.3233 47.9996 14.2634 47.9996Z" fill="black"/>
<path d="M46.7346 2.95811C46.7346 4.59145 45.4098 5.91508 43.7765 5.91508C42.1431 5.91508 40.8184 4.59145 40.8184 2.95811C40.8184 1.32363 42.1431 0 43.7765 0C45.4098 0 46.7346 1.32363 46.7346 2.95811Z" fill="black"/>
<path d="M38.5773 20.9404H7.66016V23.6182H38.5773V20.9404Z" fill="black"/>
<path d="M19.7048 8.44629H17.0293V28.6003H19.7048V8.44629Z" fill="black"/>
<path d="M26.5438 8.44629H23.8672V28.6003H26.5438V8.44629Z" fill="black"/>
<path d="M41.759 16.7761H9.54086C8.90673 16.7761 8.39355 16.2618 8.39355 15.6288V15.2479C8.39355 14.6149 8.90673 14.1006 9.54086 14.1006H41.7601C42.3954 14.1006 42.9086 14.6149 42.9086 15.2479V15.6288C42.9086 16.2618 42.3943 16.7761 41.759 16.7761Z" fill="black"/>
<path d="M38.2862 43.2327C38.2862 45.126 36.7523 46.661 34.8601 46.661C32.9679 46.661 31.4307 45.126 31.4307 43.2327C31.4307 41.3405 32.9668 39.8066 34.8601 39.8066C36.7523 39.8066 38.2862 41.3405 38.2862 43.2327Z" fill="#DCE3EB"/>
<path d="M34.8594 41.1447C33.7065 41.1447 32.7706 42.0807 32.7706 43.2325C32.7706 44.3843 33.7065 45.3225 34.8594 45.3225C36.0124 45.3225 36.9494 44.3843 36.9494 43.2325C36.9494 42.0807 36.0124 41.1447 34.8594 41.1447ZM34.8594 47.9991C32.2314 47.9991 30.0928 45.8617 30.0928 43.2325C30.0928 40.6033 32.2314 38.4658 34.8594 38.4658C37.4863 38.4658 39.6249 40.6033 39.6249 43.2325C39.6249 45.8605 37.4863 47.9991 34.8594 47.9991Z" fill="black"/>
<path d="M39.2341 9.39414L37.3408 7.50082L42.8298 2.01074L44.7231 3.9052L39.2341 9.39414Z" fill="black"/>
</svg>
