<svg width="56" height="36" viewBox="0 0 56 36" fill="none" xmlns="http://www.w3.org/2000/svg">
<circle cx="18.9028" cy="18" r="18" fill="#001996"/>
<path fill-rule="evenodd" clip-rule="evenodd" d="M11.4028 27C11.4028 27 9.90283 27 9.90283 25.5C9.90283 24 11.4028 19.5 18.9028 19.5C26.4028 19.5 27.9028 24 27.9028 25.5C27.9028 27 26.4028 27 26.4028 27H11.4028ZM18.9028 18C20.0963 18 21.2409 17.5259 22.0848 16.682C22.9287 15.8381 23.4028 14.6935 23.4028 13.5C23.4028 12.3065 22.9287 11.1619 22.0848 10.318C21.2409 9.47411 20.0963 9 18.9028 9C17.7094 9 16.5648 9.47411 15.7209 10.318C14.8769 11.1619 14.4028 12.3065 14.4028 13.5C14.4028 14.6935 14.8769 15.8381 15.7209 16.682C16.5648 17.5259 17.7094 18 18.9028 18Z" fill="white"/>
<path d="M48.341 20.7504L44.1445 15.9537C43.6492 15.3893 44.0517 14.5029 44.8033 14.5029H53.1963C53.3645 14.5028 53.5292 14.5511 53.6707 14.6422C53.8121 14.7332 53.9243 14.8631 53.9938 15.0163C54.0634 15.1695 54.0873 15.3394 54.0627 15.5058C54.0381 15.6722 53.9661 15.828 53.8552 15.9546L49.6587 20.7496C49.5766 20.8435 49.4753 20.9189 49.3616 20.9705C49.248 21.0221 49.1246 21.0488 48.9998 21.0488C48.875 21.0488 48.7516 21.0221 48.638 20.9705C48.5244 20.9189 48.4231 20.8435 48.341 20.7496V20.7504Z" fill="#001996"/>
</svg>
