<svg width="24" height="24" viewBox="0 0 24 24" fill="none" xmlns="http://www.w3.org/2000/svg">
<path fill-rule="evenodd" clip-rule="evenodd" d="M4 12C4 9.87827 4.84285 7.84344 6.34315 6.34315C7.84344 4.84285 9.87827 4 12 4C14.1217 4 16.1566 4.84285 17.6569 6.34315C19.1571 7.84344 20 9.87827 20 12C20 14.1217 19.1571 16.1566 17.6569 17.6569C16.1566 19.1571 14.1217 20 12 20C9.87827 20 7.84344 19.1571 6.34315 17.6569C4.84285 16.1566 4 14.1217 4 12ZM11.5 5.077C10.83 5.281 10.165 5.897 9.613 6.932C9.43113 7.2761 9.27471 7.63305 9.145 8H11.5V5.077ZM8.09 8H6.255C7.02201 6.89962 8.088 6.04183 9.327 5.528C9.10259 5.82199 8.90291 6.13406 8.73 6.461C8.483 6.925 8.268 7.441 8.09 8ZM7.508 11.5H5.018C5.08 10.61 5.309 9.767 5.674 9H7.82C7.63916 9.82193 7.53472 10.6588 7.508 11.5ZM8.847 9H11.5V11.5H8.51C8.53742 10.6575 8.64999 9.81987 8.846 9H8.847ZM12.5 9V11.5H15.49C15.4623 10.6574 15.3494 9.81983 15.153 9H12.5ZM8.51 12.5H11.5V15H8.847C8.65031 14.1802 8.53707 13.3426 8.509 12.5H8.51ZM12.5 12.5V15H15.153C15.34 14.235 15.459 13.392 15.491 12.5H12.5ZM9.145 16H11.5V18.923C10.83 18.719 10.165 18.103 9.613 17.068C9.43113 16.7239 9.27471 16.3669 9.145 16ZM9.327 18.472C9.10257 18.178 8.90289 17.866 8.73 17.539C8.47088 17.0463 8.25668 16.5312 8.09 16H6.255C7.02196 17.1004 8.08797 17.9582 9.327 18.472ZM7.82 15H5.674C5.30112 14.2149 5.07861 13.367 5.018 12.5H7.508C7.538 13.377 7.646 14.218 7.82 15ZM14.673 18.472C15.912 17.9582 16.978 17.1004 17.745 16H15.91C15.7433 16.5312 15.5291 17.0463 15.27 17.539C15.0971 17.866 14.8975 18.178 14.673 18.472ZM12.5 16H14.855C14.7253 16.367 14.5689 16.7239 14.387 17.068C13.835 18.103 13.169 18.718 12.5 18.923V16ZM16.18 15H18.326C18.691 14.233 18.92 13.39 18.982 12.5H16.492C16.4653 13.3412 16.3608 14.1781 16.18 15ZM18.982 11.5H16.492C16.4653 10.6588 16.3608 9.82193 16.18 9H18.326C18.691 9.767 18.92 10.61 18.982 11.5ZM15.27 6.461C15.517 6.925 15.732 7.441 15.91 8H17.745C16.978 6.89958 15.912 6.04178 14.673 5.528C14.891 5.812 15.091 6.126 15.27 6.461ZM14.855 8H12.5V5.077C13.17 5.281 13.835 5.897 14.387 6.932C14.56 7.256 14.717 7.614 14.855 8Z" fill="#111111"/>
</svg>
