<svg width="38" height="50" viewBox="0 0 38 50" fill="none" xmlns="http://www.w3.org/2000/svg">
<path d="M16.7285 26.1035C16.123 26.7187 15.127 26.7187 14.5215 26.1035L9.05176 20.6348C8.44141 20.0293 8.44141 19.0332 9.05176 18.4277C9.66113 17.8125 10.6543 17.8125 11.2598 18.4277L15.625 22.793L25.459 12.959C26.0645 12.3438 27.0605 12.3438 27.666 12.959C28.2812 13.5645 28.2812 14.5605 27.666 15.166L16.7285 26.1035ZM37.5 18.75C37.5 27.2852 26.0742 42.4805 21.0645 48.75C19.8633 50.2441 17.6367 50.2441 16.4355 48.75C11.3379 42.4805 0 27.2852 0 18.75C0 8.39453 8.39453 0 18.75 0C29.1016 0 37.5 8.39453 37.5 18.75ZM18.75 3.125C10.1172 3.125 3.125 10.1172 3.125 18.75C3.125 20.2734 3.65527 22.3633 4.74219 24.9414C5.80762 27.4707 7.30469 30.2148 8.99805 32.959C12.3242 38.3594 16.2695 43.5254 18.75 46.6406C21.2305 43.5254 25.1758 38.3594 28.5059 32.959C30.1953 30.2148 31.6895 27.4707 32.7539 24.9414C33.8477 22.3633 34.375 20.2734 34.375 18.75C34.375 10.1172 27.3828 3.125 18.75 3.125Z" fill="black"/>
</svg>
