<svg width="154" height="23" viewBox="0 0 154 23" fill="none" xmlns="http://www.w3.org/2000/svg">
<g clip-path="url(#clip0_8863_6484)">
<path fill-rule="evenodd" clip-rule="evenodd" d="M107.795 6.39465C105.147 6.39465 102.768 7.11855 101.464 7.67849L99.9685 10.9438C101.425 10.274 103.382 9.60507 105.377 9.60507C107.446 9.60507 107.563 10.6487 107.102 11.6374L106.949 11.9071C102.152 11.9071 97.5862 13.7263 95.7084 17.7656C94.5205 20.3595 95.4029 22.5 98.3158 22.5C100.004 22.5 101.77 21.8556 103.306 20.6521H103.418L102.959 22.1754H107.178C107.446 21.24 108.024 19.9061 108.636 18.5149L111.207 12.9762C112.778 9.55014 112.932 6.39465 107.795 6.39465ZM104.801 16.9072C104.686 17.1761 104.532 17.4425 104.341 17.6836C103.572 18.646 102.385 19.2634 101.387 19.2634C100.465 19.2634 99.8507 18.6723 100.503 17.3114C101.425 15.3299 103.689 14.7675 105.798 14.7675L104.801 16.9072Z" fill="#DA322A"/>
<path fill-rule="evenodd" clip-rule="evenodd" d="M59.1921 6.68982L54.8191 16.212C54.5875 16.667 54.3177 17.0687 54.0496 17.3639C53.4735 18.0328 52.479 18.7789 51.365 18.7789C49.8692 18.7789 49.8692 17.4426 50.867 15.275L54.8564 6.68982H50.1381L45.8813 15.9161C43.7696 20.4398 44.7276 22.5 47.9143 22.5C50.2527 22.5 52.2483 21.24 53.3988 20.2513H53.4735L52.8227 22.1754H57.0039C57.2713 21.24 57.8083 19.8774 58.4632 18.5149C59.0751 17.1761 63.9088 6.68982 63.9088 6.68982H59.1921Z" fill="#DA322A"/>
<path fill-rule="evenodd" clip-rule="evenodd" d="M78.5234 19.1838C76.6831 19.1838 76.7968 17.0687 78.0262 14.4199C79.0597 12.1998 80.8643 9.71246 82.9354 9.71246C84.8156 9.71246 84.3557 12.1998 83.3181 14.4199C82.1294 16.99 80.2866 19.1838 78.5624 19.1838H78.5234ZM76.9496 22.5C80.4418 22.5 85.3884 20.3316 88.19 14.3412C90.3765 9.55014 88.996 6.39465 84.584 6.39465C80.25 6.39465 75.6463 9.2837 73.229 14.5248C70.9272 19.5298 72.6156 22.5 76.9496 22.5Z" fill="#DA322A"/>
<path fill-rule="evenodd" clip-rule="evenodd" d="M128.392 19.1838C126.549 19.1838 126.704 17.0687 127.892 14.4199C128.928 12.1998 130.771 9.71246 132.802 9.71246C134.72 9.71246 134.221 12.1998 133.186 14.4199C132.035 16.99 130.157 19.1838 128.429 19.1838H128.392ZM126.856 22.5C130.309 22.5 135.298 20.3316 138.06 14.3412C140.243 9.55014 138.903 6.39465 134.452 6.39465C130.157 6.39465 125.551 9.2837 123.136 14.5248C120.797 19.5298 122.484 22.5 126.82 22.5H126.856Z" fill="#DA322A"/>
<path fill-rule="evenodd" clip-rule="evenodd" d="M153.094 6.475C152.789 6.39465 152.556 6.39465 152.136 6.39465C150.717 6.39465 148.644 7.30465 146.918 9.31157H146.803L147.802 6.68979H143.771C143.198 8.0802 142.506 9.66 141.626 11.6112L136.716 22.1754H139.246C140.665 22.1754 141.779 21.4285 142.429 20.0373L145.078 14.3412C145.307 13.8312 145.576 13.3795 145.807 13.0565C146.918 11.5062 148.528 10.7307 149.949 10.7307C150.449 10.7307 150.754 10.7561 151.062 10.8086L153.094 6.475Z" fill="#DA322A"/>
<path fill-rule="evenodd" clip-rule="evenodd" d="M118.532 18.7534C117.305 18.7534 116.998 18.0574 117.842 16.239L120.758 9.98136H123.558L125.09 6.68979H122.253L124.171 2.57019H121.716C120.297 2.57019 119.185 3.34738 118.532 4.73861L117.612 6.68979H115.579L114.083 9.98136H116.079L112.97 16.7465C111.895 19.0478 111.742 20.4136 112.243 21.2703C112.701 22.0426 113.737 22.4713 115.197 22.4713C116.462 22.4713 117.612 22.3106 118.34 22.0999L119.952 18.6214C119.492 18.7264 119.185 18.7534 118.532 18.7534Z" fill="#DA322A"/>
<path fill-rule="evenodd" clip-rule="evenodd" d="M98.1264 2.57019C96.7053 2.57019 95.5548 3.34738 94.9422 4.73861L86.8486 22.1754H89.3813C90.7991 22.1754 91.9098 21.4285 92.5631 20.0373L100.657 2.57019H98.1264Z" fill="#DA322A"/>
<path fill-rule="evenodd" clip-rule="evenodd" d="M76.2223 6.475C75.9525 6.39465 75.7218 6.39465 75.2619 6.39465C73.8822 6.39465 71.7721 7.30465 70.0837 9.31157H69.9301L70.9661 6.68979H66.9002C66.3258 8.0802 65.6725 9.66 64.7511 11.6112L59.8809 22.1754H62.3737C63.8313 22.1754 64.9445 21.4285 65.597 20.0373L68.2051 14.3412C68.4351 13.8312 68.7024 13.3795 68.9348 13.0565C70.0455 11.5062 71.6559 10.7307 73.0762 10.7307C73.5751 10.7307 73.9212 10.7561 74.2276 10.8086L76.2223 6.475Z" fill="#DA322A"/>
<path fill-rule="evenodd" clip-rule="evenodd" d="M47.8737 7.65229C49.1014 4.60256 49.1014 1.15112 42.4266 1.15112H36.4431L26.7002 22.1754H29.1532C30.6125 22.1754 31.7248 21.4285 32.3773 20.0373L34.9863 14.4199C35.33 14.4486 35.7891 14.4748 36.2888 14.4748C38.7052 14.4748 41.4304 14.2313 43.6925 12.7352C45.4963 11.5587 46.9539 9.8986 47.8737 7.65229ZM37.8236 10.9152C37.3231 10.9152 36.942 10.9152 36.6341 10.8365L39.5892 4.44106C40.0491 4.364 40.5464 4.38859 41.315 4.38859C43.5795 4.38859 44.154 5.56749 43.2318 7.6277C42.3128 9.7125 40.2774 10.9152 37.8236 10.9152Z" fill="#DA322A"/>
<path fill-rule="evenodd" clip-rule="evenodd" d="M32.0717 1.15112H24.092L14.3848 22.1754H20.1009C21.5593 22.1754 22.6733 21.4285 23.3241 20.0373C23.9758 18.6461 32.0717 1.15112 32.0717 1.15112Z" fill="#22387D"/>
<mask id="mask0_8863_6484" style="mask-type:alpha" maskUnits="userSpaceOnUse" x="0" y="1" width="22" height="22">
<path d="M0.0488281 1.15112H21.5197V22.1754H0.0488281V1.15112Z" fill="white"/>
</mask>
<g mask="url(#mask0_8863_6484)">
<path fill-rule="evenodd" clip-rule="evenodd" d="M21.5203 1.15112L11.8163 22.1754H8.13477L16.8816 3.29167C17.5324 1.92995 18.6439 1.15112 20.0634 1.15112H21.5203Z" fill="#DA322A"/>
<path fill-rule="evenodd" clip-rule="evenodd" d="M10.0135 12.6287H0.960401C0.422511 12.6287 0 13.0566 0 13.5911C0 13.8313 0.116191 14.0732 0.269757 14.2601L6.40755 20.4112L10.0135 12.6287Z" fill="#22387D"/>
</g>
</g>
<defs>
<clipPath id="clip0_8863_6484">
<rect width="153.567" height="22.1351" fill="white" transform="translate(0 0.364868)"/>
</clipPath>
</defs>
</svg>
