<svg width="37" height="36" viewBox="0 0 37 36" fill="none" xmlns="http://www.w3.org/2000/svg">
<circle cx="18.5312" cy="18" r="18" fill="#001996"/>
<path fill-rule="evenodd" clip-rule="evenodd" d="M11.0312 27C11.0312 27 9.53125 27 9.53125 25.5C9.53125 24 11.0312 19.5 18.5312 19.5C26.0312 19.5 27.5312 24 27.5312 25.5C27.5312 27 26.0312 27 26.0312 27H11.0312ZM18.5312 18C19.7247 18 20.8693 17.5259 21.7132 16.682C22.5571 15.8381 23.0312 14.6935 23.0312 13.5C23.0312 12.3065 22.5571 11.1619 21.7132 10.318C20.8693 9.47411 19.7247 9 18.5312 9C17.3378 9 16.1932 9.47411 15.3493 10.318C14.5054 11.1619 14.0312 12.3065 14.0312 13.5C14.0312 14.6935 14.5054 15.8381 15.3493 16.682C16.1932 17.5259 17.3378 18 18.5312 18Z" fill="white"/>
</svg>
