<svg width="24" height="24" viewBox="0 0 24 24" fill="none" xmlns="http://www.w3.org/2000/svg">
<g clip-path="url(#clip0_506_4333)">
<path d="M12 16.5595C11.07 16.5595 10.3157 17.3138 10.3157 18.2438C10.3179 19.1738 11.0679 19.9291 12 19.9291C12.9321 19.9291 13.6843 19.1748 13.6843 18.2448C13.6821 17.3148 12.9321 16.5595 12 16.5595ZM12 14.7863C12.7098 14.7863 13.2857 14.2104 13.2857 13.5006V6.64342C13.2857 5.93627 12.7125 5.3577 12 5.3577C11.2875 5.3577 10.7143 5.93627 10.7143 6.64342V13.5006C10.7143 14.2131 11.2929 14.7863 12 14.7863ZM20.5714 0.214844H3.42857C1.53482 0.214844 0 1.74967 0 3.64342V20.7863C0 22.68 1.53482 24.2148 3.42857 24.2148H20.5714C22.4652 24.2148 24 22.68 24 20.7863V3.64342C24 1.74967 22.4625 0.214844 20.5714 0.214844ZM21.4286 20.7863C21.4286 21.2589 21.044 21.6434 20.5714 21.6434H3.42857C2.95596 21.6434 2.57143 21.2589 2.57143 20.7863V3.64342C2.57143 3.17081 2.95596 2.78627 3.42857 2.78627H20.5714C21.044 2.78627 21.4286 3.17081 21.4286 3.64342V20.7863Z" fill="#111111"/>
</g>
<defs>
<clipPath id="clip0_506_4333">
<rect width="24" height="24" fill="white"/>
</clipPath>
</defs>
</svg>
