<svg width="63" height="50" viewBox="0 0 63 50" fill="none" xmlns="http://www.w3.org/2000/svg">
<g clip-path="url(#clip0_4_5548)">
<path d="M35.9375 0C38.5254 0 40.625 2.09863 40.625 4.6875V9.375H45.5762C47.2363 9.375 48.7402 10.0293 50 11.2012L57.5488 18.75C58.7207 19.9219 59.375 21.5137 59.375 23.1738V34.375C61.1035 34.375 62.5 35.7715 62.5 37.5C62.5 39.2285 61.1035 40.625 59.375 40.625H56.1426C55.3809 35.3223 50.8203 31.25 45.3125 31.25C39.8047 31.25 35.2441 35.3223 34.4824 40.625H28.0176C27.2559 35.3223 22.6953 31.25 17.1875 31.25C11.6797 31.25 7.11914 35.3223 6.36035 40.625H4.6875C2.09863 40.625 0 38.5254 0 35.9375V4.6875C0 2.09863 2.09863 0 4.6875 0H35.9375ZM40.625 15.625V25H53.125V23.1738L45.5762 15.625H40.625Z" fill="black"/>
<path opacity="1" d="M9.375 42.1875C9.375 37.8711 12.8711 34.375 17.1875 34.375C21.5039 34.375 25 37.8711 25 42.1875C25 46.5039 21.5039 50 17.1875 50C12.8711 50 9.375 46.5039 9.375 42.1875ZM37.5 42.1875C37.5 37.8711 40.9961 34.375 45.3125 34.375C49.6289 34.375 53.125 37.8711 53.125 42.1875C53.125 46.5039 49.6289 50 45.3125 50C40.9961 50 37.5 46.5039 37.5 42.1875Z" fill="black"/>
</g>
<defs>
<clipPath id="clip0_4_5548">
<rect width="62.5" height="50" fill="white"/>
</clipPath>
</defs>
</svg>
