<svg width="44" height="24" viewBox="0 0 44 24" fill="none" xmlns="http://www.w3.org/2000/svg">
<g clip-path="url(#clip0_387_633)">
<path d="M44 0.428711H0V2.19843H44V0.428711Z" fill="#CA1F1D"/>
<path d="M44 2.19824H0V3.96796H44V2.19824Z" fill="white"/>
<path d="M44 3.96777H0V5.7375H44V3.96777Z" fill="#CA1F1D"/>
<path d="M44 5.73828H0V7.508H44V5.73828Z" fill="white"/>
<path d="M44 7.50488H0V9.27461H44V7.50488Z" fill="#CA1F1D"/>
<path d="M44 9.27441H0V11.0441H44V9.27441Z" fill="white"/>
<path d="M44 11.0439H0V12.8137H44V11.0439Z" fill="#CA1F1D"/>
<path d="M44 12.8135H0V14.5832H44V12.8135Z" fill="white"/>
<path d="M44 14.583H0V16.3527H44V14.583Z" fill="#CA1F1D"/>
<path d="M44 16.3525H0V18.1223H44V16.3525Z" fill="white"/>
<path d="M44 18.123H0V19.8928H44V18.123Z" fill="#CA1F1D"/>
<path d="M44 19.8896H0V21.6594H44V19.8896Z" fill="white"/>
<path d="M44 21.6592H0V23.4289H44V21.6592Z" fill="#CA1F1D"/>
<path d="M17.6 0.428711H0V12.8136H17.6V0.428711Z" fill="#1A3E7A"/>
<path d="M1.48306 0.911133L1.64066 1.39988L2.15849 1.39669L1.74037 1.69697L1.90118 2.18572L1.48306 1.88224L1.06493 2.18572L1.22575 1.69697L0.807617 1.39669L1.32545 1.39988L1.48306 0.911133Z" fill="white"/>
<path d="M2.94595 2.17285L3.10355 2.6616H3.62139L3.20326 2.96188L3.36408 3.45063L2.94595 3.14716L2.52782 3.45063L2.68864 2.96188L2.27051 2.6616H2.78834L2.94595 2.17285Z" fill="white"/>
<path d="M5.8727 2.18945L6.03031 2.6782H6.54814L6.13001 2.97848L6.29083 3.46723L5.8727 3.16376L5.45458 3.46723L5.61539 2.97848L5.19727 2.6782H5.7151L5.8727 2.18945Z" fill="white"/>
<path d="M8.80044 2.24023L8.95804 2.72579H9.47588L9.05775 3.02607L9.21857 3.51482L8.80044 3.21135L8.38231 3.51482L8.54313 3.02607L8.125 2.72579H8.64284L8.80044 2.24023Z" fill="white"/>
<path d="M11.7272 2.24023L11.8848 2.72579H12.4026L11.9845 3.02607L12.1453 3.51482L11.7272 3.21135L11.3091 3.51482L11.4699 3.02607L11.0518 2.72579H11.5696L11.7272 2.24023Z" fill="white"/>
<path d="M14.6538 2.24023L14.8114 2.72579H15.3293L14.9111 3.02607L15.072 3.51482L14.6538 3.21135L14.2357 3.51482L14.3965 3.02607L13.9784 2.72579H14.4962L14.6538 2.24023Z" fill="white"/>
<path d="M2.94595 4.64844L3.10355 5.13719H3.62139L3.20326 5.43747L3.36408 5.92302L2.94595 5.62274L2.52782 5.92302L2.68864 5.43747L2.27051 5.13719H2.78834L2.94595 4.64844Z" fill="white"/>
<path d="M5.8727 4.66406L6.03031 5.15281H6.54814L6.13001 5.45309L6.29083 5.94184L5.8727 5.63837L5.45458 5.94184L5.61539 5.45309L5.19727 5.15281H5.7151L5.8727 4.66406Z" fill="white"/>
<path d="M8.80044 4.71582L8.95804 5.20138H9.47588L9.05775 5.50165L9.21857 5.9904L8.80044 5.68693L8.38231 5.9904L8.54313 5.50165L8.125 5.20138H8.64284L8.80044 4.71582Z" fill="white"/>
<path d="M11.7272 4.71582L11.8848 5.20138H12.4026L11.9845 5.50165L12.1453 5.9904L11.7272 5.68693L11.3091 5.9904L11.4699 5.50165L11.0518 5.20138H11.5696L11.7272 4.71582Z" fill="white"/>
<path d="M14.6538 4.71582L14.8114 5.20138H15.3293L14.9111 5.50165L15.072 5.9904L14.6538 5.68693L14.2357 5.9904L14.3965 5.50165L13.9784 5.20138H14.4962L14.6538 4.71582Z" fill="white"/>
<path d="M2.94595 7.23242L3.10355 7.72117L3.62139 7.71798L3.20326 8.01826L3.36408 8.50701L2.94595 8.20353L2.52782 8.50701L2.68864 8.01826L2.27051 7.71798L2.78834 7.72117L2.94595 7.23242Z" fill="white"/>
<path d="M5.8727 7.24902L6.03031 7.73777L6.54814 7.73458L6.13001 8.03486L6.29083 8.52361L5.8727 8.22013L5.45458 8.52361L5.61539 8.03486L5.19727 7.73458L5.7151 7.73777L5.8727 7.24902Z" fill="white"/>
<path d="M8.80044 7.29688L8.95804 7.78563L9.47588 7.78243L9.05775 8.0859L9.21857 8.57146L8.80044 8.27118L8.38231 8.57146L8.54313 8.0859L8.125 7.78243L8.64284 7.78563L8.80044 7.29688Z" fill="white"/>
<path d="M11.7272 7.29688L11.8848 7.78563L12.4026 7.78243L11.9845 8.0859L12.1453 8.57146L11.7272 8.27118L11.3091 8.57146L11.4699 8.0859L11.0518 7.78243L11.5696 7.78563L11.7272 7.29688Z" fill="white"/>
<path d="M14.6538 7.29688L14.8114 7.78563L15.3293 7.78243L14.9111 8.0859L15.072 8.57146L14.6538 8.27118L14.2357 8.57146L14.3965 8.0859L13.9784 7.78243L14.4962 7.78563L14.6538 7.29688Z" fill="white"/>
<path d="M2.94595 9.79102L3.10355 10.2798H3.62139L3.20326 10.58L3.36408 11.0688L2.94595 10.7653L2.52782 11.0688L2.68864 10.58L2.27051 10.2798H2.78834L2.94595 9.79102Z" fill="white"/>
<path d="M5.8727 9.81055L6.03031 10.2961H6.54814L6.13001 10.5964L6.29083 11.0851L5.8727 10.7817L5.45458 11.0851L5.61539 10.5964L5.19727 10.2961H5.7151L5.8727 9.81055Z" fill="white"/>
<path d="M8.80044 9.79102L8.95804 10.2798H9.47588L9.05775 10.58L9.21857 11.0688L8.80044 10.7653L8.38231 11.0688L8.54313 10.58L8.125 10.2798H8.64284L8.80044 9.79102Z" fill="white"/>
<path d="M11.7272 9.85938L11.8848 10.3481L12.4026 10.3449L11.9845 10.6452L12.1453 11.134L11.7272 10.8305L11.3091 11.134L11.4699 10.6452L11.0518 10.3449L11.5696 10.3481L11.7272 9.85938Z" fill="white"/>
<path d="M14.6538 9.8584L14.8114 10.3471L15.3293 10.344L14.9111 10.6442L15.072 11.133L14.6538 10.8295L14.2357 11.133L14.3965 10.6442L13.9784 10.344L14.4962 10.3471L14.6538 9.8584Z" fill="white"/>
<path d="M4.40969 0.911133L4.56729 1.39988L5.08513 1.39669L4.667 1.69697L4.82782 2.18572L4.40969 1.88224L3.99156 2.18572L4.15238 1.69697L3.73425 1.39669L4.25209 1.39988L4.40969 0.911133Z" fill="white"/>
<path d="M7.33657 0.911133L7.49417 1.39988L8.01201 1.39669L7.59388 1.69697L7.7547 2.18572L7.33657 1.88224L6.91844 2.18572L7.07926 1.69697L6.66113 1.39669L7.17897 1.39988L7.33657 0.911133Z" fill="white"/>
<path d="M10.2635 0.911133L10.4211 1.39988L10.9389 1.39669L10.5208 1.69697L10.6816 2.18572L10.2635 1.88224L9.84532 2.18572L10.0061 1.69697L9.58801 1.39669L10.1058 1.39988L10.2635 0.911133Z" fill="white"/>
<path d="M13.1901 0.911133L13.3477 1.39988L13.8655 1.39669L13.4474 1.69697L13.6082 2.18572L13.1901 1.88224L12.772 2.18572L12.9328 1.69697L12.5146 1.39669L13.0325 1.39988L13.1901 0.911133Z" fill="white"/>
<path d="M16.1168 0.911133L16.2744 1.39988L16.7923 1.39669L16.3742 1.69697L16.535 2.18572L16.1168 1.88224L15.6987 2.18572L15.8595 1.69697L15.4414 1.39669L15.9592 1.39988L16.1168 0.911133Z" fill="white"/>
<path d="M1.48306 3.4375L1.64066 3.92625H2.15849L1.74037 4.22653L1.90118 4.71528L1.48306 4.41181L1.06493 4.71528L1.22575 4.22653L0.807617 3.92625H1.32545L1.48306 3.4375Z" fill="white"/>
<path d="M4.40969 3.4375L4.56729 3.92625H5.08513L4.667 4.22653L4.82782 4.71528L4.40969 4.41181L3.99156 4.71528L4.15238 4.22653L3.73425 3.92625H4.25209L4.40969 3.4375Z" fill="white"/>
<path d="M7.33657 3.4375L7.49417 3.92625H8.01201L7.59388 4.22653L7.7547 4.71528L7.33657 4.41181L6.91844 4.71528L7.07926 4.22653L6.66113 3.92625H7.17897L7.33657 3.4375Z" fill="white"/>
<path d="M10.2635 3.4375L10.4211 3.92625H10.9389L10.5208 4.22653L10.6816 4.71528L10.2635 4.41181L9.84532 4.71528L10.0061 4.22653L9.58801 3.92625H10.1058L10.2635 3.4375Z" fill="white"/>
<path d="M13.1901 3.4375L13.3477 3.92625H13.8655L13.4474 4.22653L13.6082 4.71528L13.1901 4.41181L12.772 4.71528L12.9328 4.22653L12.5146 3.92625H13.0325L13.1901 3.4375Z" fill="white"/>
<path d="M16.1168 3.4375L16.2744 3.92625H16.7923L16.3742 4.22653L16.535 4.71528L16.1168 4.41181L15.6987 4.71528L15.8595 4.22653L15.4414 3.92625H15.9592L16.1168 3.4375Z" fill="white"/>
<path d="M1.48306 5.96777L1.64066 6.45652H2.15849L1.74037 6.7568L1.90118 7.24236L1.48306 6.94208L1.06493 7.24236L1.22575 6.7568L0.807617 6.45652H1.32545L1.48306 5.96777Z" fill="white"/>
<path d="M4.40969 5.96777L4.56729 6.45652H5.08513L4.667 6.7568L4.82782 7.24236L4.40969 6.94208L3.99156 7.24236L4.15238 6.7568L3.73425 6.45652H4.25209L4.40969 5.96777Z" fill="white"/>
<path d="M7.33657 5.96777L7.49417 6.45652H8.01201L7.59388 6.7568L7.7547 7.24236L7.33657 6.94208L6.91844 7.24236L7.07926 6.7568L6.66113 6.45652H7.17897L7.33657 5.96777Z" fill="white"/>
<path d="M10.2635 5.96777L10.4211 6.45652H10.9389L10.5208 6.7568L10.6816 7.24236L10.2635 6.94208L9.84532 7.24236L10.0061 6.7568L9.58801 6.45652H10.1058L10.2635 5.96777Z" fill="white"/>
<path d="M13.1901 5.96777L13.3477 6.45652H13.8655L13.4474 6.7568L13.6082 7.24236L13.1901 6.94208L12.772 7.24236L12.9328 6.7568L12.5146 6.45652H13.0325L13.1901 5.96777Z" fill="white"/>
<path d="M16.1168 5.96777L16.2744 6.45652H16.7923L16.3742 6.7568L16.535 7.24236L16.1168 6.94208L15.6987 7.24236L15.8595 6.7568L15.4414 6.45652H15.9592L16.1168 5.96777Z" fill="white"/>
<path d="M1.48306 8.49805L1.64066 8.9868L2.15849 8.9836L1.74037 9.28388L1.90118 9.77263L1.48306 9.46916L1.06493 9.77263L1.22575 9.28388L0.807617 8.9836L1.32545 8.9868L1.48306 8.49805Z" fill="white"/>
<path d="M4.40969 8.49805L4.56729 8.9868L5.08513 8.9836L4.667 9.28388L4.82782 9.77263L4.40969 9.46916L3.99156 9.77263L4.15238 9.28388L3.73425 8.9836L4.25209 8.9868L4.40969 8.49805Z" fill="white"/>
<path d="M7.33657 8.49805L7.49417 8.9868L8.01201 8.9836L7.59388 9.28388L7.7547 9.77263L7.33657 9.46916L6.91844 9.77263L7.07926 9.28388L6.66113 8.9836L7.17897 8.9868L7.33657 8.49805Z" fill="white"/>
<path d="M10.2635 8.49805L10.4211 8.9868L10.9389 8.9836L10.5208 9.28388L10.6816 9.77263L10.2635 9.46916L9.84532 9.77263L10.0061 9.28388L9.58801 8.9836L10.1058 8.9868L10.2635 8.49805Z" fill="white"/>
<path d="M13.1901 8.49805L13.3477 8.9868L13.8655 8.9836L13.4474 9.28388L13.6082 9.77263L13.1901 9.46916L12.772 9.77263L12.9328 9.28388L12.5146 8.9836L13.0325 8.9868L13.1901 8.49805Z" fill="white"/>
<path d="M16.1168 8.49805L16.2744 8.9868L16.7923 8.9836L16.3742 9.28388L16.535 9.77263L16.1168 9.46916L15.6987 9.77263L15.8595 9.28388L15.4414 8.9836L15.9592 8.9868L16.1168 8.49805Z" fill="white"/>
<path d="M1.48306 11.0273L1.64066 11.5129H2.15849L1.74037 11.8132L1.90118 12.3019L1.48306 11.9985L1.06493 12.3019L1.22575 11.8132L0.807617 11.5129H1.32545L1.48306 11.0273Z" fill="white"/>
<path d="M4.40969 11.0283L4.56729 11.5139H5.08513L4.667 11.8142L4.82782 12.3029L4.40969 11.9994L3.99156 12.3029L4.15238 11.8142L3.73425 11.5139H4.25209L4.40969 11.0283Z" fill="white"/>
<path d="M7.33657 11.0283L7.49417 11.5139H8.01201L7.59388 11.8142L7.7547 12.3029L7.33657 11.9994L6.91844 12.3029L7.07926 11.8142L6.66113 11.5139H7.17897L7.33657 11.0283Z" fill="white"/>
<path d="M10.2635 11.0283L10.4211 11.5139H10.9389L10.5208 11.8142L10.6816 12.3029L10.2635 11.9994L9.84532 12.3029L10.0061 11.8142L9.58801 11.5139H10.1058L10.2635 11.0283Z" fill="white"/>
<path d="M13.1901 11.0273L13.3477 11.5129H13.8655L13.4474 11.8132L13.6082 12.3019L13.1901 11.9985L12.772 12.3019L12.9328 11.8132L12.5146 11.5129H13.0325L13.1901 11.0273Z" fill="white"/>
<path d="M16.1168 11.0273L16.2744 11.5129H16.7923L16.3742 11.8132L16.535 12.3019L16.1168 11.9985L15.6987 12.3019L15.8595 11.8132L15.4414 11.5129H15.9592L16.1168 11.0273Z" fill="white"/>
</g>
<defs>
<clipPath id="clip0_387_633">
<rect width="44" height="23" fill="white" transform="translate(0 0.428711)"/>
</clipPath>
</defs>
</svg>
